<svg xmlns="http://www.w3.org/2000/svg" width="102.921" height="199.962" viewBox="0 0 96.488 187.465"><path d="M435.882 511.896a3.916 3.916 0 0 0-3.925 3.924v29.892a3.918 3.918 0 0 0 3.925 3.926h11.574a3.918 3.918 0 0 0 3.926-3.926V515.82a3.916 3.916 0 0 0-3.926-3.924zm-2.28 5.098h16.134c.164 0 .295.133.295.297v26.949a.297.297 0 0 1-.295.298h-16.133a.298.298 0 0 1-.297-.298v-26.95c0-.163.133-.296.297-.296z" style="fill:#464646;fill-opacity:1;stroke:none;stroke-width:.282;stroke-linecap:round;stroke-linejoin:miter;stroke-miterlimit:4;stroke-dasharray:none;stroke-dashoffset:0;stroke-opacity:1" transform="matrix(4.96705 0 0 4.96705 -2145.549 -2542.613)"/><text xml:space="preserve" x="441.734" y="544.754" style="font-style:normal;font-variant:normal;font-weight:400;font-stretch:normal;line-height:0%;font-family:SeoulHangang;-inkscape-font-specification:SeoulHangang;text-align:center;letter-spacing:0;word-spacing:0;writing-mode:lr-tb;text-anchor:middle;display:inline;fill:#464646;fill-opacity:1;stroke:none;stroke-width:1px;stroke-linecap:butt;stroke-linejoin:miter;stroke-opacity:1" transform="matrix(4.96705 0 0 4.96705 -2145.549 -2542.613)"><tspan x="441.734" y="544.754" style="font-size:45.1181px;line-height:1.25">s</tspan></text></svg>